# xmcd
#
# Track frame offsets: 
#        150
#        16065
#        37145
#        54557
#        73182
#        92557
#        112195
#        131917
#        151860
#        169892
#        184927
#        204322
#
# Disc length: 2957 seconds
#
# Revision: 0
# Processed by: cddbd v1.5.2PL0 Copyright (c) Steve Scherf et al.
# Submitted via: ExactAudioCopy v1.0b1
#
DISCID=a90b8b0c
DTITLE=Kim Cole - I'll Take the Cowboy
DYEAR=2005
DGENRE=Country
TTITLE0=Rust and Rain
TTITLE1=Good Heart to Come Home To
TTITLE2=Woman's Work
TTITLE3=I'll Take the Cowboy
TTITLE4=Human Kind
TTITLE5=Your Town
TTITLE6=Heart on my Skin
TTITLE7=Days Like This
TTITLE8=Avignon
TTITLE9=When You Kiss Me
TTITLE10=Wayward Heart
TTITLE11=When the Sun Goes Down
EXTD=
EXTT0=
EXTT1=
EXTT2=
EXTT3=
EXTT4=
EXTT5=
EXTT6=
EXTT7=
EXTT8=
EXTT9=
EXTT10=
EXTT11=
PLAYORDER=
